<svg width="22" height="22" viewBox="0 0 22 22" fill="none" xmlns="http://www.w3.org/2000/svg">
<path fill-rule="evenodd" clip-rule="evenodd" d="M13.6135 10.9991L21.4567 3.15597C22.1787 2.434 22.1787 1.26345 21.4567 0.541582C20.7347 -0.18039 19.5643 -0.18039 18.8423 0.541582L10.999 8.38484L3.15579 0.541479C2.43381 -0.180493 1.26337 -0.180493 0.541401 0.541479C-0.180467 1.26345 -0.180467 2.434 0.541401 3.15586L8.38466 10.999L0.541401 18.8423C-0.180467 19.5642 -0.180467 20.7348 0.541401 21.4567C1.26337 22.1786 2.43381 22.1786 3.15579 21.4567L10.999 13.6134L18.8423 21.4567C19.5642 22.1786 20.7347 22.1786 21.4567 21.4567C22.1787 20.7347 22.1787 19.5642 21.4567 18.8423L13.6135 10.9991Z" fill="white"/>
</svg>
