<svg width="36" height="25" viewBox="0 0 36 25" fill="none" xmlns="http://www.w3.org/2000/svg">
<path d="M34.5458 11.0769H1.4542C0.651094 11.0769 0 11.6968 0 12.4615C0 13.2263 0.651094 13.8461 1.4542 13.8461H34.5458C35.349 13.8461 36 13.2263 36 12.4615C36 11.6968 35.349 11.0769 34.5458 11.0769Z" fill="white"/>
<path d="M34.5458 0H1.4542C0.651094 0 0 0.619937 0 1.38462C0 2.14929 0.651094 2.76923 1.4542 2.76923H34.5458C35.349 2.76923 36 2.14929 36 1.38462C36 0.619937 35.349 0 34.5458 0Z" fill="white"/>
<path d="M34.5458 22.1538H1.4542C0.651094 22.1538 0 22.7737 0 23.5384C0 24.3032 0.651094 24.923 1.4542 24.923H34.5458C35.349 24.923 36 24.3032 36 23.5384C36 22.7737 35.349 22.1538 34.5458 22.1538Z" fill="white"/>
</svg>
